<svg width="24" height="24" viewBox="0 0 24 24" fill="none" xmlns="http://www.w3.org/2000/svg">
<g clip-path="url(#clip0_2579_605)">
<path d="M11.406 0.131994L0.585999 5.18699C0.512828 5.22055 0.450842 5.27442 0.40742 5.34221C0.363997 5.40999 0.340967 5.48882 0.341072 5.56931C0.341178 5.64981 0.364413 5.72858 0.408013 5.79625C0.451613 5.86392 0.51374 5.91763 0.586998 5.95099L11.492 10.969C11.814 11.117 12.186 11.117 12.508 10.969L23.413 5.95099C23.4863 5.91773 23.5485 5.8641 23.5922 5.79649C23.6359 5.72888 23.6592 5.65014 23.6594 5.56964C23.6596 5.48914 23.6367 5.41028 23.5934 5.34244C23.55 5.2746 23.4881 5.22064 23.415 5.18699L12.594 0.131994C12.408 0.045088 12.2053 4.57764e-05 12 4.57764e-05C11.7947 4.57764e-05 11.592 0.045088 11.406 0.131994Z" fill="#0876DD"/>
<path d="M23.415 11.676L21.18 10.632C21.0199 10.5572 20.8455 10.5182 20.6688 10.5177C20.4922 10.5172 20.3175 10.5552 20.157 10.629L12.508 14.149C12.3487 14.2223 12.1754 14.2602 12 14.2602C11.8246 14.2602 11.6513 14.2223 11.492 14.149L3.842 10.629C3.68163 10.5553 3.50715 10.5174 3.33067 10.5179C3.15418 10.5184 2.97992 10.5574 2.82 10.632L0.584997 11.676C0.51187 11.7097 0.449954 11.7636 0.40662 11.8314C0.363285 11.8993 0.340359 11.9781 0.34057 12.0586C0.340781 12.1391 0.364119 12.2179 0.407808 12.2855C0.451497 12.3531 0.513695 12.4067 0.586998 12.44L11.492 17.457C11.6512 17.5307 11.8246 17.5688 12 17.5688C12.1754 17.5688 12.3488 17.5307 12.508 17.457L23.413 12.44C23.4863 12.4067 23.5485 12.3531 23.5922 12.2855C23.6359 12.2179 23.6592 12.1391 23.6594 12.0586C23.6596 11.9781 23.6367 11.8993 23.5934 11.8314C23.55 11.7636 23.4881 11.7097 23.415 11.676Z" fill="#0876DD"/>
<path d="M23.415 18.108L21.18 17.064C21.0199 16.9892 20.8455 16.9502 20.6688 16.9497C20.4922 16.9492 20.3175 16.9872 20.157 17.061L12.508 20.58C12.3487 20.6533 12.1754 20.6912 12 20.6912C11.8246 20.6912 11.6513 20.6533 11.492 20.58L3.842 17.06C3.68164 16.9863 3.50715 16.9484 3.33067 16.9489C3.15418 16.9494 2.97993 16.9884 2.82 17.063L0.584999 18.108C0.512153 18.1418 0.450516 18.1957 0.407388 18.2634C0.364261 18.3312 0.341451 18.4098 0.341661 18.4901C0.341871 18.5704 0.365094 18.649 0.408577 18.7165C0.452059 18.784 0.513978 18.8376 0.586999 18.871L11.492 23.889C11.814 24.037 12.186 24.037 12.508 23.889L23.413 18.871C23.486 18.8376 23.5479 18.784 23.5914 18.7165C23.6349 18.649 23.6581 18.5704 23.6583 18.4901C23.6585 18.4098 23.6357 18.3312 23.5926 18.2634C23.5495 18.1957 23.4878 18.1418 23.415 18.108Z" fill="#0876DD"/>
</g>
<defs>
<clipPath id="clip0_2579_605">
<rect width="24" height="24" fill="white"/>
</clipPath>
</defs>
</svg>
